<svg xmlns="http://www.w3.org/2000/svg" viewBox="0 0 100 100"><path fill="#FFF" d="M5 0h90c2.8 0 5 2.2 5 5v90c0 2.8-2.2 5-5 5H5c-2.8 0-5-2.2-5-5V5c0-2.8 2.2-5 5-5z"/><path fill="none" d="M5 0h90c2.8 0 5 2.2 5 5v90c0 2.8-2.2 5-5 5H5c-2.8 0-5-2.2-5-5V5c0-2.8 2.2-5 5-5z"/><path fill="none" d="M5 0h90c2.8 0 5 2.2 5 5v90c0 2.8-2.2 5-5 5H5c-2.8 0-5-2.2-5-5V5c0-2.8 2.2-5 5-5z"/><path fill="none" d="M5 0h90c2.8 0 5 2.2 5 5v90c0 2.8-2.2 5-5 5H5c-2.8 0-5-2.2-5-5V5c0-2.8 2.2-5 5-5z"/><g><path fill="#4285F4" d="M71.6 50.5c0-1.6-.1-3.1-.4-4.6H50v8.7h12.1c-.5 2.8-2.1 5.2-4.5 6.8V67h7.3c4.2-3.9 6.7-9.6 6.7-16.5z"/><path fill="#34A853" d="M50 72.5c6.1 0 11.2-2 14.9-5.5l-7.3-5.6c-2 1.3-4.6 2.1-7.6 2.1-5.9 0-10.8-4-12.6-9.3h-7.5V60c3.7 7.5 11.3 12.5 20.1 12.5z"/><path fill="#FBBC05" d="M37.4 54.3c-.4-1.4-.7-2.8-.7-4.3s.3-2.9.7-4.3v-5.8h-7.5c-1.5 3-2.4 6.5-2.4 10.1 0 3.6.9 7.1 2.4 10.1l7.5-5.8z"/><path fill="#EA4335" d="M50 36.4c3.3 0 6.3 1.1 8.6 3.4l6.5-6.5c-3.9-3.6-9-5.9-15.1-5.9-8.8 0-16.4 5-20.1 12.4l7.5 5.8c1.8-5.2 6.7-9.2 12.6-9.2z"/><path fill="none" d="M27.5 27.5h45v45h-45v-45z"/></g></svg>